<svg width="13" height="13" viewBox="0 0 13 13" fill="none" xmlns="http://www.w3.org/2000/svg">
<path d="M6.5 0C5.21443 0 3.95772 0.381218 2.8888 1.09545C1.81988 1.80968 0.986756 2.82484 0.494786 4.01256C0.00281635 5.20028 -0.125905 6.50721 0.124899 7.76809C0.375703 9.02896 0.994768 10.1872 1.90381 11.0962C2.81285 12.0052 3.97104 12.6243 5.23192 12.8751C6.49279 13.1259 7.79973 12.9972 8.98745 12.5052C10.1752 12.0132 11.1903 11.1801 11.9046 10.1112C12.6188 9.04229 13 7.78558 13 6.5C12.998 4.7767 12.3126 3.12454 11.094 1.90598C9.87546 0.687424 8.22331 0.00197152 6.5 0ZM9.88455 4.94863L5.86268 8.97051C5.80234 9.03088 5.73069 9.07877 5.65184 9.11145C5.57299 9.14412 5.48847 9.16094 5.40311 9.16094C5.31775 9.16094 5.23323 9.14412 5.15438 9.11145C5.07552 9.07877 5.00388 9.03088 4.94354 8.97051L3.11545 7.14238C2.99483 7.02024 2.92743 6.85534 2.92797 6.68367C2.92851 6.51201 2.99693 6.34753 3.11832 6.22615C3.2397 6.10476 3.40417 6.03632 3.57584 6.03578C3.7475 6.03524 3.9124 6.10263 4.03455 6.22324L5.40311 7.5918L8.96545 4.02949C9.0876 3.90888 9.25251 3.84149 9.42417 3.84203C9.59583 3.84257 9.76031 3.91101 9.88169 4.0324C10.0031 4.15378 10.0715 4.31826 10.072 4.48992C10.0726 4.66159 10.0052 4.82649 9.88455 4.94863Z" fill="#34A853"/>
</svg>
